<svg xmlns="http://www.w3.org/2000/svg" version="1.1" xmlns:xlink="http://www.w3.org/1999/xlink" xmlns:svgjs="http://svgjs.dev/svgjs" width="1440" height="560" preserveAspectRatio="none" viewBox="0 0 1440 560"><g mask="url(&quot;#SvgjsMask1104&quot;)" fill="none"><rect width="1440" height="560" x="0" y="0" fill="rgba(255, 255, 255, 1)"></rect><path d="M596.3 549.19 a113.72 113.72 0 1 0 227.44 0 a113.72 113.72 0 1 0 -227.44 0z" fill="rgba(11, 123, 93, 1)" class="triangle-float2"></path><path d="M1261.58 449 a121.63 121.63 0 1 0 243.26 0 a121.63 121.63 0 1 0 -243.26 0z" fill="rgba(11, 123, 93, 1)" class="triangle-float2"></path><path d="M174.62 210.76 a104.49 104.49 0 1 0 208.98 0 a104.49 104.49 0 1 0 -208.98 0z" fill="rgba(11, 123, 93, 1)" class="triangle-float3"></path><path d="M886.09 26.39 a176.83 176.83 0 1 0 353.66 0 a176.83 176.83 0 1 0 -353.66 0z" fill="rgba(11, 123, 93, 1)" class="triangle-float1"></path><path d="M609.34 251.88 a176.61 176.61 0 1 0 353.22 0 a176.61 176.61 0 1 0 -353.22 0z" fill="rgba(11, 123, 93, 1)" class="triangle-float3"></path><path d="M303.6 466.34 a140.69 140.69 0 1 0 281.38 0 a140.69 140.69 0 1 0 -281.38 0z" fill="rgba(11, 123, 93, 1)" class="triangle-float1"></path></g><defs><mask id="SvgjsMask1104"><rect width="1440" height="560" fill="#ffffff"></rect></mask><style>
                @keyframes float1 {
                    0%{transform: translate(0, 0)}
                    50%{transform: translate(-10px, 0)}
                    100%{transform: translate(0, 0)}
                }

                .triangle-float1 {
                    animation: float1 5s infinite;
                }

                @keyframes float2 {
                    0%{transform: translate(0, 0)}
                    50%{transform: translate(-5px, -5px)}
                    100%{transform: translate(0, 0)}
                }

                .triangle-float2 {
                    animation: float2 4s infinite;
                }

                @keyframes float3 {
                    0%{transform: translate(0, 0)}
                    50%{transform: translate(0, -10px)}
                    100%{transform: translate(0, 0)}
                }

                .triangle-float3 {
                    animation: float3 6s infinite;
                }
            </style></defs></svg>